<svg xmlns="http://www.w3.org/2000/svg" xmlns:xlink="http://www.w3.org/1999/xlink" width="500" zoomAndPan="magnify" viewBox="0 0 375 374.999991" height="500" preserveAspectRatio="xMidYMid meet" version="1.0"><defs><g/><clipPath id="6921db2e11"><path d="M 10.941406 150.8125 L 87.441406 150.8125 L 87.441406 241.5625 L 10.941406 241.5625 Z M 10.941406 150.8125 " clip-rule="nonzero"/></clipPath><clipPath id="c97f01f0c5"><path d="M 53 150.8125 L 87.441406 150.8125 L 87.441406 186 L 53 186 Z M 53 150.8125 " clip-rule="nonzero"/></clipPath></defs><g fill="#38b6ff" fill-opacity="1"><g transform="translate(100.31495, 207.749986)"><g><path d="M 3.203125 0 L 3.203125 -27.71875 L 21.921875 -27.71875 L 21.921875 -22.484375 L 9.4375 -22.484375 L 9.4375 -17.046875 L 20.515625 -17.046875 L 20.515625 -11.921875 L 9.4375 -11.921875 L 9.4375 -5.234375 L 22.84375 -5.234375 L 22.84375 0 Z M 3.203125 0 "/></g></g></g><g fill="#38b6ff" fill-opacity="1"><g transform="translate(124.55254, 207.749986)"><g><path d="M 23.765625 -27.71875 L 23.765625 -22.40625 L 15.40625 -22.40625 L 15.40625 0 L 9.15625 0 L 9.15625 -22.40625 L 0.796875 -22.40625 L 0.796875 -27.71875 Z M 23.765625 -27.71875 "/></g></g></g><g fill="#4f4d5e" fill-opacity="1"><g transform="translate(149.100103, 207.749986)"><g/></g></g><g fill="#4f4d5e" fill-opacity="1"><g transform="translate(158.699155, 207.749986)"><g><path d="M 11.3125 -28.046875 C 15.476562 -28.046875 18.664062 -27.300781 20.875 -25.8125 C 23.09375 -24.332031 24.203125 -22.035156 24.203125 -18.921875 C 24.203125 -16.972656 23.753906 -15.390625 22.859375 -14.171875 C 21.960938 -12.960938 20.675781 -12.007812 19 -11.3125 C 19.5625 -10.625 20.148438 -9.832031 20.765625 -8.9375 C 21.378906 -8.039062 21.984375 -7.109375 22.578125 -6.140625 C 23.179688 -5.171875 23.757812 -4.15625 24.3125 -3.09375 C 24.875 -2.039062 25.394531 -1.007812 25.875 0 L 18.875 0 C 18.375 -0.90625 17.863281 -1.820312 17.34375 -2.75 C 16.820312 -3.6875 16.285156 -4.59375 15.734375 -5.46875 C 15.191406 -6.351562 14.648438 -7.1875 14.109375 -7.96875 C 13.578125 -8.757812 13.046875 -9.476562 12.515625 -10.125 L 9.4375 -10.125 L 9.4375 0 L 3.203125 0 L 3.203125 -27.3125 C 4.554688 -27.582031 5.957031 -27.769531 7.40625 -27.875 C 8.863281 -27.988281 10.164062 -28.046875 11.3125 -28.046875 Z M 11.6875 -22.71875 C 11.226562 -22.71875 10.816406 -22.703125 10.453125 -22.671875 C 10.097656 -22.648438 9.757812 -22.625 9.4375 -22.59375 L 9.4375 -15.078125 L 11.203125 -15.078125 C 13.546875 -15.078125 15.222656 -15.367188 16.234375 -15.953125 C 17.253906 -16.546875 17.765625 -17.546875 17.765625 -18.953125 C 17.765625 -20.316406 17.25 -21.285156 16.21875 -21.859375 C 15.195312 -22.429688 13.6875 -22.71875 11.6875 -22.71875 Z M 11.6875 -22.71875 "/></g></g></g><g fill="#4f4d5e" fill-opacity="1"><g transform="translate(185.376499, 207.749986)"><g><path d="M 1.796875 -10.359375 C 1.796875 -12.222656 2.082031 -13.851562 2.65625 -15.25 C 3.226562 -16.65625 3.976562 -17.820312 4.90625 -18.75 C 5.84375 -19.6875 6.914062 -20.394531 8.125 -20.875 C 9.34375 -21.351562 10.59375 -21.59375 11.875 -21.59375 C 14.863281 -21.59375 17.222656 -20.679688 18.953125 -18.859375 C 20.691406 -17.035156 21.5625 -14.347656 21.5625 -10.796875 C 21.5625 -10.453125 21.546875 -10.070312 21.515625 -9.65625 C 21.492188 -9.25 21.46875 -8.882812 21.4375 -8.5625 L 7.921875 -8.5625 C 8.054688 -7.332031 8.628906 -6.359375 9.640625 -5.640625 C 10.648438 -4.921875 12.007812 -4.5625 13.71875 -4.5625 C 14.8125 -4.5625 15.882812 -4.660156 16.9375 -4.859375 C 17.988281 -5.054688 18.847656 -5.300781 19.515625 -5.59375 L 20.3125 -0.765625 C 20 -0.597656 19.570312 -0.4375 19.03125 -0.28125 C 18.5 -0.125 17.90625 0.0078125 17.25 0.125 C 16.601562 0.25 15.90625 0.351562 15.15625 0.4375 C 14.414062 0.519531 13.671875 0.5625 12.921875 0.5625 C 11.023438 0.5625 9.375 0.28125 7.96875 -0.28125 C 6.570312 -0.84375 5.414062 -1.609375 4.5 -2.578125 C 3.582031 -3.554688 2.898438 -4.710938 2.453125 -6.046875 C 2.015625 -7.378906 1.796875 -8.816406 1.796875 -10.359375 Z M 15.796875 -12.640625 C 15.773438 -13.148438 15.6875 -13.644531 15.53125 -14.125 C 15.382812 -14.601562 15.160156 -15.023438 14.859375 -15.390625 C 14.554688 -15.765625 14.171875 -16.070312 13.703125 -16.3125 C 13.234375 -16.5625 12.648438 -16.6875 11.953125 -16.6875 C 11.285156 -16.6875 10.710938 -16.570312 10.234375 -16.34375 C 9.753906 -16.113281 9.351562 -15.8125 9.03125 -15.4375 C 8.71875 -15.0625 8.472656 -14.628906 8.296875 -14.140625 C 8.128906 -13.648438 8.003906 -13.148438 7.921875 -12.640625 Z M 15.796875 -12.640625 "/></g></g></g><g fill="#4f4d5e" fill-opacity="1"><g transform="translate(208.734175, 207.749986)"><g><path d="M 14.359375 -11.15625 C 14.359375 -13.082031 14.109375 -14.441406 13.609375 -15.234375 C 13.117188 -16.035156 12.273438 -16.4375 11.078125 -16.4375 C 10.703125 -16.4375 10.3125 -16.414062 9.90625 -16.375 C 9.507812 -16.332031 9.128906 -16.285156 8.765625 -16.234375 L 8.765625 0 L 2.796875 0 L 2.796875 -20.3125 C 3.304688 -20.445312 3.898438 -20.585938 4.578125 -20.734375 C 5.253906 -20.878906 5.972656 -21.007812 6.734375 -21.125 C 7.492188 -21.25 8.273438 -21.34375 9.078125 -21.40625 C 9.878906 -21.476562 10.664062 -21.515625 11.4375 -21.515625 C 12.957031 -21.515625 14.191406 -21.320312 15.140625 -20.9375 C 16.085938 -20.550781 16.867188 -20.09375 17.484375 -19.5625 C 18.335938 -20.175781 19.316406 -20.65625 20.421875 -21 C 21.523438 -21.34375 22.546875 -21.515625 23.484375 -21.515625 C 25.160156 -21.515625 26.535156 -21.28125 27.609375 -20.8125 C 28.691406 -20.351562 29.550781 -19.695312 30.1875 -18.84375 C 30.832031 -17.988281 31.273438 -16.972656 31.515625 -15.796875 C 31.753906 -14.628906 31.875 -13.320312 31.875 -11.875 L 31.875 0 L 25.921875 0 L 25.921875 -11.15625 C 25.921875 -13.082031 25.671875 -14.441406 25.171875 -15.234375 C 24.679688 -16.035156 23.835938 -16.4375 22.640625 -16.4375 C 22.316406 -16.4375 21.867188 -16.351562 21.296875 -16.1875 C 20.722656 -16.03125 20.25 -15.832031 19.875 -15.59375 C 20.0625 -14.988281 20.179688 -14.34375 20.234375 -13.65625 C 20.285156 -12.976562 20.3125 -12.253906 20.3125 -11.484375 L 20.3125 0 L 14.359375 0 Z M 14.359375 -11.15625 "/></g></g></g><g fill="#4f4d5e" fill-opacity="1"><g transform="translate(243.210746, 207.749986)"><g><path d="M 10.84375 -4.15625 C 11.425781 -4.15625 11.984375 -4.164062 12.515625 -4.1875 C 13.046875 -4.21875 13.472656 -4.257812 13.796875 -4.3125 L 13.796875 -8.84375 C 13.554688 -8.894531 13.195312 -8.945312 12.71875 -9 C 12.238281 -9.050781 11.800781 -9.078125 11.40625 -9.078125 C 10.84375 -9.078125 10.3125 -9.039062 9.8125 -8.96875 C 9.320312 -8.90625 8.890625 -8.78125 8.515625 -8.59375 C 8.140625 -8.40625 7.84375 -8.148438 7.625 -7.828125 C 7.414062 -7.515625 7.3125 -7.117188 7.3125 -6.640625 C 7.3125 -5.703125 7.625 -5.050781 8.25 -4.6875 C 8.882812 -4.332031 9.75 -4.15625 10.84375 -4.15625 Z M 10.359375 -21.59375 C 12.117188 -21.59375 13.582031 -21.394531 14.75 -21 C 15.925781 -20.601562 16.867188 -20.03125 17.578125 -19.28125 C 18.285156 -18.53125 18.785156 -17.617188 19.078125 -16.546875 C 19.367188 -15.484375 19.515625 -14.300781 19.515625 -13 L 19.515625 -0.59375 C 18.660156 -0.40625 17.472656 -0.1875 15.953125 0.0625 C 14.441406 0.3125 12.601562 0.4375 10.4375 0.4375 C 9.082031 0.4375 7.847656 0.316406 6.734375 0.078125 C 5.628906 -0.160156 4.675781 -0.550781 3.875 -1.09375 C 3.082031 -1.644531 2.472656 -2.359375 2.046875 -3.234375 C 1.617188 -4.117188 1.40625 -5.203125 1.40625 -6.484375 C 1.40625 -7.703125 1.648438 -8.738281 2.140625 -9.59375 C 2.628906 -10.445312 3.285156 -11.128906 4.109375 -11.640625 C 4.941406 -12.148438 5.890625 -12.515625 6.953125 -12.734375 C 8.023438 -12.960938 9.132812 -13.078125 10.28125 -13.078125 C 11.050781 -13.078125 11.734375 -13.039062 12.328125 -12.96875 C 12.929688 -12.90625 13.421875 -12.820312 13.796875 -12.71875 L 13.796875 -13.28125 C 13.796875 -14.289062 13.488281 -15.101562 12.875 -15.71875 C 12.257812 -16.332031 11.195312 -16.640625 9.6875 -16.640625 C 8.664062 -16.640625 7.660156 -16.566406 6.671875 -16.421875 C 5.691406 -16.273438 4.84375 -16.066406 4.125 -15.796875 L 3.359375 -20.59375 C 3.703125 -20.707031 4.132812 -20.820312 4.65625 -20.9375 C 5.175781 -21.0625 5.742188 -21.171875 6.359375 -21.265625 C 6.972656 -21.359375 7.617188 -21.4375 8.296875 -21.5 C 8.972656 -21.5625 9.660156 -21.59375 10.359375 -21.59375 Z M 10.359375 -21.59375 "/></g></g></g><g fill="#4f4d5e" fill-opacity="1"><g transform="translate(265.328547, 207.749986)"><g><path d="M 8.765625 0 L 2.796875 0 L 2.796875 -21.046875 L 8.765625 -21.046875 Z M 9.3125 -27.125 C 9.3125 -26.03125 8.957031 -25.164062 8.25 -24.53125 C 7.550781 -23.90625 6.722656 -23.59375 5.765625 -23.59375 C 4.796875 -23.59375 3.957031 -23.90625 3.25 -24.53125 C 2.550781 -25.164062 2.203125 -26.03125 2.203125 -27.125 C 2.203125 -28.21875 2.550781 -29.078125 3.25 -29.703125 C 3.957031 -30.328125 4.796875 -30.640625 5.765625 -30.640625 C 6.722656 -30.640625 7.550781 -30.328125 8.25 -29.703125 C 8.957031 -29.078125 9.3125 -28.21875 9.3125 -27.125 Z M 9.3125 -27.125 "/></g></g></g><g fill="#4f4d5e" fill-opacity="1"><g transform="translate(276.887399, 207.749986)"><g><path d="M 2.796875 -20.3125 C 3.804688 -20.613281 5.113281 -20.890625 6.71875 -21.140625 C 8.320312 -21.390625 10.003906 -21.515625 11.765625 -21.515625 C 13.546875 -21.515625 15.03125 -21.28125 16.21875 -20.8125 C 17.40625 -20.351562 18.34375 -19.695312 19.03125 -18.84375 C 19.726562 -17.988281 20.222656 -16.972656 20.515625 -15.796875 C 20.804688 -14.628906 20.953125 -13.320312 20.953125 -11.875 L 20.953125 0 L 15 0 L 15 -11.15625 C 15 -13.082031 14.742188 -14.441406 14.234375 -15.234375 C 13.734375 -16.035156 12.789062 -16.4375 11.40625 -16.4375 C 10.976562 -16.4375 10.519531 -16.414062 10.03125 -16.375 C 9.550781 -16.332031 9.128906 -16.285156 8.765625 -16.234375 L 8.765625 0 L 2.796875 0 Z M 2.796875 -20.3125 "/></g></g></g><g fill="#4f4d5e" fill-opacity="1"><g transform="translate(300.44506, 207.749986)"><g><path d="M 7.875 -10.6875 C 7.875 -8.84375 8.285156 -7.359375 9.109375 -6.234375 C 9.941406 -5.117188 11.171875 -4.5625 12.796875 -4.5625 C 13.328125 -4.5625 13.816406 -4.582031 14.265625 -4.625 C 14.722656 -4.664062 15.101562 -4.710938 15.40625 -4.765625 L 15.40625 -15.59375 C 15.03125 -15.832031 14.539062 -16.03125 13.9375 -16.1875 C 13.34375 -16.351562 12.738281 -16.4375 12.125 -16.4375 C 9.289062 -16.4375 7.875 -14.519531 7.875 -10.6875 Z M 21.359375 -0.6875 C 20.828125 -0.519531 20.210938 -0.363281 19.515625 -0.21875 C 18.828125 -0.0703125 18.101562 0.0507812 17.34375 0.15625 C 16.582031 0.257812 15.804688 0.34375 15.015625 0.40625 C 14.234375 0.476562 13.484375 0.515625 12.765625 0.515625 C 11.023438 0.515625 9.472656 0.265625 8.109375 -0.234375 C 6.753906 -0.742188 5.609375 -1.472656 4.671875 -2.421875 C 3.742188 -3.367188 3.03125 -4.515625 2.53125 -5.859375 C 2.039062 -7.203125 1.796875 -8.71875 1.796875 -10.40625 C 1.796875 -12.101562 2.007812 -13.640625 2.4375 -15.015625 C 2.863281 -16.390625 3.476562 -17.554688 4.28125 -18.515625 C 5.082031 -19.472656 6.0625 -20.207031 7.21875 -20.71875 C 8.375 -21.226562 9.703125 -21.484375 11.203125 -21.484375 C 12.023438 -21.484375 12.765625 -21.398438 13.421875 -21.234375 C 14.078125 -21.078125 14.738281 -20.851562 15.40625 -20.5625 L 15.40625 -30.078125 L 21.359375 -31.046875 Z M 21.359375 -0.6875 "/></g></g></g><g fill="#4f4d5e" fill-opacity="1"><g transform="translate(324.602655, 207.749986)"><g><path d="M 1.796875 -10.359375 C 1.796875 -12.222656 2.082031 -13.851562 2.65625 -15.25 C 3.226562 -16.65625 3.976562 -17.820312 4.90625 -18.75 C 5.84375 -19.6875 6.914062 -20.394531 8.125 -20.875 C 9.34375 -21.351562 10.59375 -21.59375 11.875 -21.59375 C 14.863281 -21.59375 17.222656 -20.679688 18.953125 -18.859375 C 20.691406 -17.035156 21.5625 -14.347656 21.5625 -10.796875 C 21.5625 -10.453125 21.546875 -10.070312 21.515625 -9.65625 C 21.492188 -9.25 21.46875 -8.882812 21.4375 -8.5625 L 7.921875 -8.5625 C 8.054688 -7.332031 8.628906 -6.359375 9.640625 -5.640625 C 10.648438 -4.921875 12.007812 -4.5625 13.71875 -4.5625 C 14.8125 -4.5625 15.882812 -4.660156 16.9375 -4.859375 C 17.988281 -5.054688 18.847656 -5.300781 19.515625 -5.59375 L 20.3125 -0.765625 C 20 -0.597656 19.570312 -0.4375 19.03125 -0.28125 C 18.5 -0.125 17.90625 0.0078125 17.25 0.125 C 16.601562 0.25 15.90625 0.351562 15.15625 0.4375 C 14.414062 0.519531 13.671875 0.5625 12.921875 0.5625 C 11.023438 0.5625 9.375 0.28125 7.96875 -0.28125 C 6.570312 -0.84375 5.414062 -1.609375 4.5 -2.578125 C 3.582031 -3.554688 2.898438 -4.710938 2.453125 -6.046875 C 2.015625 -7.378906 1.796875 -8.816406 1.796875 -10.359375 Z M 15.796875 -12.640625 C 15.773438 -13.148438 15.6875 -13.644531 15.53125 -14.125 C 15.382812 -14.601562 15.160156 -15.023438 14.859375 -15.390625 C 14.554688 -15.765625 14.171875 -16.070312 13.703125 -16.3125 C 13.234375 -16.5625 12.648438 -16.6875 11.953125 -16.6875 C 11.285156 -16.6875 10.710938 -16.570312 10.234375 -16.34375 C 9.753906 -16.113281 9.351562 -15.8125 9.03125 -15.4375 C 8.71875 -15.0625 8.472656 -14.628906 8.296875 -14.140625 C 8.128906 -13.648438 8.003906 -13.148438 7.921875 -12.640625 Z M 15.796875 -12.640625 "/></g></g></g><g fill="#4f4d5e" fill-opacity="1"><g transform="translate(347.96032, 207.749986)"><g><path d="M 15.484375 -15.765625 C 14.953125 -15.890625 14.320312 -16.023438 13.59375 -16.171875 C 12.875 -16.328125 12.101562 -16.40625 11.28125 -16.40625 C 10.90625 -16.40625 10.457031 -16.367188 9.9375 -16.296875 C 9.414062 -16.234375 9.023438 -16.160156 8.765625 -16.078125 L 8.765625 0 L 2.796875 0 L 2.796875 -19.921875 C 3.867188 -20.296875 5.128906 -20.648438 6.578125 -20.984375 C 8.035156 -21.316406 9.65625 -21.484375 11.4375 -21.484375 C 11.757812 -21.484375 12.144531 -21.460938 12.59375 -21.421875 C 13.050781 -21.378906 13.503906 -21.320312 13.953125 -21.25 C 14.410156 -21.1875 14.863281 -21.109375 15.3125 -21.015625 C 15.769531 -20.921875 16.160156 -20.8125 16.484375 -20.6875 Z M 15.484375 -15.765625 "/></g></g></g><g clip-path="url(#6921db2e11)"><path fill="#4f4d5e" d="M 46.015625 158 C 38.800781 158.800781 32.167969 161.996094 27.359375 167.003906 C 21.546875 172.59375 18.121094 180.398438 18.121094 189.203125 C 18.121094 195.589844 19.925781 201.796875 23.332031 206.789062 C 26.941406 211.980469 31.96875 215.992188 37.78125 218.386719 L 39.183594 219.183594 L 49.621094 230.785156 L 60.0625 219.183594 L 61.265625 218.386719 C 67.277344 215.992188 72.304688 212 75.714844 206.789062 C 78.519531 202.597656 80.324219 197.984375 80.921875 192.796875 L 88.15625 192.796875 C 87.554688 199.382812 85.351562 205.589844 81.742188 210.78125 C 77.535156 216.773438 71.703125 221.78125 64.890625 224.574219 L 49.640625 241.5625 L 34.390625 224.574219 C 27.578125 221.78125 21.546875 216.773438 17.539062 210.78125 C 13.3125 204.59375 10.90625 197.1875 10.90625 189.203125 C 10.90625 178.601562 15.117188 168.800781 22.148438 161.8125 C 28.359375 155.605469 36.796875 151.613281 46.015625 150.8125 Z M 46.015625 158 " fill-opacity="1" fill-rule="nonzero"/></g><g clip-path="url(#c97f01f0c5)"><path fill="#38b6ff" d="M 53.25 150.8125 C 62.484375 151.613281 70.703125 155.605469 76.933594 161.8125 C 83.164062 168.019531 87.355469 176.40625 88.15625 185.589844 L 80.941406 185.589844 C 80.140625 178.402344 76.734375 171.796875 71.90625 167.003906 C 66.894531 162.011719 60.464844 158.820312 53.25 158 Z M 53.25 150.8125 " fill-opacity="1" fill-rule="nonzero"/></g><path fill="#38b6ff" d="M 49.640625 220.183594 L 56.253906 212.578125 L 58.660156 211.582031 C 67.898438 207.988281 73.910156 198.984375 73.910156 189.203125 C 73.910156 175.808594 63.070312 165.007812 49.621094 165.007812 C 36.175781 165.007812 25.15625 175.808594 25.15625 189.203125 C 25.15625 199.003906 31.367188 207.988281 40.605469 211.582031 L 42.808594 212.578125 Z M 37.199219 185.589844 C 39.203125 185.589844 40.804688 187.1875 40.804688 189.183594 C 40.804688 191.179688 39.203125 192.777344 37.199219 192.777344 C 35.191406 192.777344 33.589844 191.179688 33.589844 189.183594 C 33.570312 187.1875 35.191406 185.589844 37.199219 185.589844 Z M 49.640625 185.589844 C 51.644531 185.589844 53.25 187.1875 53.25 189.183594 C 53.25 191.179688 51.644531 192.777344 49.640625 192.777344 C 47.636719 192.777344 46.035156 191.179688 46.035156 189.183594 C 46.015625 187.1875 47.617188 185.589844 49.640625 185.589844 Z M 62.066406 185.589844 C 64.070312 185.589844 65.675781 187.1875 65.675781 189.183594 C 65.675781 191.179688 64.070312 192.777344 62.066406 192.777344 C 60.0625 192.777344 58.460938 191.179688 58.460938 189.183594 C 58.460938 187.1875 60.0625 185.589844 62.066406 185.589844 Z M 62.066406 185.589844 " fill-opacity="1" fill-rule="nonzero"/></svg>